<svg width="76" height="90" viewBox="0 0 76 90" fill="none" xmlns="http://www.w3.org/2000/svg">
<g filter="url(#filter0_ddii_103_1302)">
<path fill-rule="evenodd" clip-rule="evenodd" d="M66.8837 35.9461V30.9548L37.934 2.00513L8.98438 30.9548V35.9461L37.934 64.8957L66.8837 35.9461ZM54.9045 35.9461V30.9548L37.934 13.9843L20.9635 30.9548V35.9461L37.934 52.9166L54.9045 35.9461Z" fill="white"/>
<path d="M37.9341 23.967L40.1753 30.8649H47.4281L41.5605 35.128L43.8017 42.0258L37.9341 37.7627L32.0664 42.0258L34.3076 35.128L28.44 30.8649H35.6928L37.9341 23.967Z" fill="white"/>
<path d="M38.9323 67.8906L66.8836 39.9392V53.9149L47.9166 72.8819V75.8767L38.9323 83.8628V67.8906Z" fill="white"/>
<path d="M36.9358 67.8906V83.8628L27.9514 75.8767V72.8819L8.98438 53.9149V39.9392L36.9358 67.8906Z" fill="white"/>
</g>
<defs>
<filter id="filter0_ddii_103_1302" x="-4" y="0.00512695" width="83.868" height="89.8577" filterUnits="userSpaceOnUse" color-interpolation-filters="sRGB">
<feFlood flood-opacity="0" result="BackgroundImageFix"/>
<feColorMatrix in="SourceAlpha" type="matrix" values="0 0 0 0 0 0 0 0 0 0 0 0 0 0 0 0 0 0 127 0" result="hardAlpha"/>
<feOffset dy="2"/>
<feGaussianBlur stdDeviation="2"/>
<feComposite in2="hardAlpha" operator="out"/>
<feColorMatrix type="matrix" values="0 0 0 0 0 0 0 0 0 0 0 0 0 0 0 0 0 0 0.25 0"/>
<feBlend mode="normal" in2="BackgroundImageFix" result="effect1_dropShadow_103_1302"/>
<feColorMatrix in="SourceAlpha" type="matrix" values="0 0 0 0 0 0 0 0 0 0 0 0 0 0 0 0 0 0 127 0" result="hardAlpha"/>
<feOffset dy="1"/>
<feGaussianBlur stdDeviation="0.5"/>
<feComposite in2="hardAlpha" operator="out"/>
<feColorMatrix type="matrix" values="0 0 0 0 0 0 0 0 0 0 0 0 0 0 0 0 0 0 0.5 0"/>
<feBlend mode="normal" in2="effect1_dropShadow_103_1302" result="effect2_dropShadow_103_1302"/>
<feBlend mode="normal" in="SourceGraphic" in2="effect2_dropShadow_103_1302" result="shape"/>
<feColorMatrix in="SourceAlpha" type="matrix" values="0 0 0 0 0 0 0 0 0 0 0 0 0 0 0 0 0 0 127 0" result="hardAlpha"/>
<feOffset dy="1"/>
<feGaussianBlur stdDeviation="0.25"/>
<feComposite in2="hardAlpha" operator="arithmetic" k2="-1" k3="1"/>
<feColorMatrix type="matrix" values="0 0 0 0 1 0 0 0 0 1 0 0 0 0 1 0 0 0 0.8 0"/>
<feBlend mode="overlay" in2="shape" result="effect3_innerShadow_103_1302"/>
<feColorMatrix in="SourceAlpha" type="matrix" values="0 0 0 0 0 0 0 0 0 0 0 0 0 0 0 0 0 0 127 0" result="hardAlpha"/>
<feOffset dy="-1"/>
<feGaussianBlur stdDeviation="0.25"/>
<feComposite in2="hardAlpha" operator="arithmetic" k2="-1" k3="1"/>
<feColorMatrix type="matrix" values="0 0 0 0 0 0 0 0 0 0 0 0 0 0 0 0 0 0 0.5 0"/>
<feBlend mode="overlay" in2="effect3_innerShadow_103_1302" result="effect4_innerShadow_103_1302"/>
</filter>
</defs>
</svg>
