<svg width="1725" height="1605" viewBox="0 0 1725 1605" fill="none" xmlns="http://www.w3.org/2000/svg">
<mask id="mask0_146_718" style="mask-type:alpha" maskUnits="userSpaceOnUse" x="0" y="0" width="1725" height="1974">
<rect y="0.39502" width="1725" height="1972.9" fill="url(#paint0_linear_146_718)"/>
</mask>
<g mask="url(#mask0_146_718)">
<path d="M466.115 3007.11L466.469 3006.84L-1192.77 883.042L-1193.12 883.319L466.115 3007.11Z" fill="white"/>
<path d="M525.933 2960.38L526.287 2960.1L-1132.95 836.306L-1133.31 836.582L525.933 2960.38Z" fill="white"/>
<path d="M585.752 2913.64L586.106 2913.36L-1073.13 789.569L-1073.49 789.846L585.752 2913.64Z" fill="white"/>
<path d="M645.57 2866.9L645.924 2866.63L-1013.32 742.833L-1013.67 743.109L645.57 2866.9Z" fill="white"/>
<path d="M705.389 2820.17L705.743 2819.89L-953.497 696.096L-953.851 696.372L705.389 2820.17Z" fill="white"/>
<path d="M765.207 2773.43L765.561 2773.15L-893.679 649.359L-894.033 649.636L765.207 2773.43Z" fill="white"/>
<path d="M825.026 2726.69L825.379 2726.42L-833.861 602.623L-834.215 602.899L825.026 2726.69Z" fill="white"/>
<path d="M884.844 2679.96L885.198 2679.68L-774.042 555.886L-774.396 556.162L884.844 2679.96Z" fill="white"/>
<path d="M944.662 2633.22L945.016 2632.94L-714.224 509.149L-714.578 509.426L944.662 2633.22Z" fill="white"/>
<path d="M1004.48 2586.48L1004.83 2586.21L-654.405 462.412L-654.759 462.689L1004.48 2586.48Z" fill="white"/>
<path d="M1064.3 2539.75L1064.65 2539.47L-594.587 415.676L-594.941 415.952L1064.3 2539.75Z" fill="white"/>
<path d="M1124.12 2493.01L1124.47 2492.73L-534.769 368.939L-535.123 369.216L1124.12 2493.01Z" fill="white"/>
<path d="M1183.94 2446.27L1184.29 2446L-474.95 322.203L-475.304 322.479L1183.94 2446.27Z" fill="white"/>
<path d="M1243.75 2399.54L1244.11 2399.26L-415.132 275.466L-415.486 275.742L1243.75 2399.54Z" fill="white"/>
<path d="M1303.57 2352.8L1303.93 2352.52L-355.313 228.729L-355.667 229.006L1303.57 2352.8Z" fill="white"/>
<path d="M1363.39 2306.06L1363.74 2305.79L-295.495 181.993L-295.849 182.269L1363.39 2306.06Z" fill="white"/>
<path d="M1423.21 2259.33L1423.56 2259.05L-235.677 135.256L-236.031 135.532L1423.21 2259.33Z" fill="white"/>
<path d="M1483.03 2212.59L1483.38 2212.31L-175.858 88.5192L-176.212 88.7958L1483.03 2212.59Z" fill="white"/>
<path d="M1542.85 2165.85L1543.2 2165.58L-116.04 41.7826L-116.394 42.0591L1542.85 2165.85Z" fill="white"/>
<path d="M1602.66 2119.12L1603.02 2118.84L-56.2214 -4.95398L-56.5753 -4.67749L1602.66 2119.12Z" fill="white"/>
<path d="M1662.48 2072.38L1662.84 2072.1L3.59705 -51.6908L3.24316 -51.4142L1662.48 2072.38Z" fill="white"/>
<path d="M1722.3 2025.64L1722.66 2025.37L63.4154 -98.4273L63.0615 -98.1509L1722.3 2025.64Z" fill="white"/>
<path d="M1782.12 1978.91L1782.47 1978.63L123.234 -145.164L122.88 -144.888L1782.12 1978.91Z" fill="white"/>
<path d="M1841.94 1932.17L1842.29 1931.89L183.052 -191.901L182.698 -191.624L1841.94 1932.17Z" fill="white"/>
<path d="M1901.76 1885.43L1902.11 1885.16L242.871 -238.637L242.517 -238.361L1901.76 1885.43Z" fill="white"/>
<path d="M1961.58 1838.7L1961.93 1838.42L302.689 -285.374L302.335 -285.097L1961.58 1838.7Z" fill="white"/>
<path d="M2021.39 1791.96L2021.75 1791.68L362.507 -332.111L362.153 -331.834L2021.39 1791.96Z" fill="white"/>
<path d="M2081.21 1745.22L2081.57 1744.95L422.326 -378.847L421.972 -378.571L2081.21 1745.22Z" fill="white"/>
<path d="M2141.03 1698.49L2141.38 1698.21L482.144 -425.584L481.79 -425.307L2141.03 1698.49Z" fill="white"/>
<path d="M2200.85 1651.75L2201.2 1651.47L541.963 -472.321L541.609 -472.044L2200.85 1651.75Z" fill="white"/>
<path d="M2260.67 1605.01L2261.02 1604.74L601.781 -519.057L601.427 -518.781L2260.67 1605.01Z" fill="white"/>
<path d="M2320.49 1558.28L2320.84 1558L661.599 -565.794L661.246 -565.517L2320.49 1558.28Z" fill="white"/>
<path d="M2380.3 1511.54L2380.66 1511.26L721.418 -612.531L721.064 -612.254L2380.3 1511.54Z" fill="white"/>
<path d="M2440.12 1464.8L2440.48 1464.53L781.236 -659.267L780.882 -658.991L2440.12 1464.8Z" fill="white"/>
<path d="M2499.94 1418.07L2500.29 1417.79L841.055 -706.004L840.701 -705.727L2499.94 1418.07Z" fill="white"/>
<path d="M2559.76 1371.33L2560.11 1371.05L900.873 -752.741L900.519 -752.464L2559.76 1371.33Z" fill="white"/>
<path d="M2619.58 1324.59L2619.93 1324.32L960.692 -799.477L960.338 -799.201L2619.58 1324.59Z" fill="white"/>
<path d="M2679.4 1277.86L2679.75 1277.58L1020.51 -846.214L1020.16 -845.937L2679.4 1277.86Z" fill="white"/>
<path d="M2739.21 1231.12L2739.57 1230.84L1080.33 -892.951L1079.97 -892.674L2739.21 1231.12Z" fill="white"/>
<path d="M2799.03 1184.38L2799.39 1184.11L1140.15 -939.687L1139.79 -939.411L2799.03 1184.38Z" fill="white"/>
<path d="M2858.85 1137.65L2859.21 1137.37L1199.97 -986.424L1199.61 -986.147L2858.85 1137.65Z" fill="white"/>
<path d="M2918.67 1090.91L2919.02 1090.63L1259.78 -1033.16L1259.43 -1032.88L2918.67 1090.91Z" fill="white"/>
<path d="M1259.78 3007.11L1259.43 3006.84L2918.67 883.042L2919.02 883.319L1259.78 3007.11Z" fill="white"/>
<path d="M1199.97 2960.38L1199.61 2960.1L2858.85 836.306L2859.21 836.582L1199.97 2960.38Z" fill="white"/>
<path d="M1140.15 2913.64L1139.79 2913.36L2799.03 789.569L2799.39 789.846L1140.15 2913.64Z" fill="white"/>
<path d="M1080.33 2866.9L1079.97 2866.63L2739.21 742.833L2739.57 743.109L1080.33 2866.9Z" fill="white"/>
<path d="M1020.51 2820.17L1020.16 2819.89L2679.4 696.096L2679.75 696.372L1020.51 2820.17Z" fill="white"/>
<path d="M960.691 2773.43L960.338 2773.15L2619.58 649.359L2619.93 649.636L960.691 2773.43Z" fill="white"/>
<path d="M900.873 2726.69L900.519 2726.42L2559.76 602.623L2560.11 602.899L900.873 2726.69Z" fill="white"/>
<path d="M841.055 2679.96L840.701 2679.68L2499.94 555.886L2500.29 556.162L841.055 2679.96Z" fill="white"/>
<path d="M781.236 2633.22L780.882 2632.94L2440.12 509.149L2440.48 509.426L781.236 2633.22Z" fill="white"/>
<path d="M721.418 2586.48L721.064 2586.21L2380.3 462.412L2380.66 462.689L721.418 2586.48Z" fill="white"/>
<path d="M661.6 2539.75L661.246 2539.47L2320.49 415.676L2320.84 415.952L661.6 2539.75Z" fill="white"/>
<path d="M601.781 2493.01L601.427 2492.73L2260.67 368.939L2261.02 369.216L601.781 2493.01Z" fill="white"/>
<path d="M541.963 2446.27L541.609 2446L2200.85 322.203L2201.2 322.479L541.963 2446.27Z" fill="white"/>
<path d="M482.144 2399.54L481.79 2399.26L2141.03 275.466L2141.38 275.742L482.144 2399.54Z" fill="white"/>
<path d="M422.326 2352.8L421.972 2352.52L2081.21 228.729L2081.57 229.006L422.326 2352.8Z" fill="white"/>
<path d="M362.507 2306.06L362.154 2305.79L2021.39 181.993L2021.75 182.269L362.507 2306.06Z" fill="white"/>
<path d="M302.689 2259.33L302.335 2259.05L1961.58 135.256L1961.93 135.532L302.689 2259.33Z" fill="white"/>
<path d="M242.871 2212.59L242.517 2212.31L1901.76 88.5192L1902.11 88.7958L242.871 2212.59Z" fill="white"/>
<path d="M183.052 2165.85L182.698 2165.58L1841.94 41.7826L1842.29 42.0591L183.052 2165.85Z" fill="white"/>
<path d="M123.234 2119.12L122.88 2118.84L1782.12 -4.95398L1782.47 -4.67749L123.234 2119.12Z" fill="white"/>
<path d="M63.4154 2072.38L63.0615 2072.1L1722.3 -51.6908L1722.66 -51.4142L63.4154 2072.38Z" fill="white"/>
<path d="M3.59705 2025.64L3.24304 2025.37L1662.48 -98.4273L1662.84 -98.1509L3.59705 2025.64Z" fill="white"/>
<path d="M-56.2213 1978.91L-56.5753 1978.63L1602.66 -145.164L1603.02 -144.888L-56.2213 1978.91Z" fill="white"/>
<path d="M-116.04 1932.17L-116.394 1931.89L1542.85 -191.901L1543.2 -191.624L-116.04 1932.17Z" fill="white"/>
<path d="M-175.858 1885.43L-176.212 1885.16L1483.03 -238.637L1483.38 -238.361L-175.858 1885.43Z" fill="white"/>
<path d="M-235.677 1838.7L-236.031 1838.42L1423.21 -285.374L1423.56 -285.097L-235.677 1838.7Z" fill="white"/>
<path d="M-295.495 1791.96L-295.849 1791.68L1363.39 -332.111L1363.74 -331.834L-295.495 1791.96Z" fill="white"/>
<path d="M-355.313 1745.22L-355.667 1744.95L1303.57 -378.847L1303.93 -378.571L-355.313 1745.22Z" fill="white"/>
<path d="M-415.132 1698.49L-415.486 1698.21L1243.75 -425.584L1244.11 -425.307L-415.132 1698.49Z" fill="white"/>
<path d="M-474.95 1651.75L-475.304 1651.47L1183.94 -472.321L1184.29 -472.044L-474.95 1651.75Z" fill="white"/>
<path d="M-534.769 1605.01L-535.123 1604.74L1124.12 -519.057L1124.47 -518.781L-534.769 1605.01Z" fill="white"/>
<path d="M-594.587 1558.28L-594.941 1558L1064.3 -565.794L1064.65 -565.517L-594.587 1558.28Z" fill="white"/>
<path d="M-654.406 1511.54L-654.759 1511.26L1004.48 -612.531L1004.83 -612.254L-654.406 1511.54Z" fill="white"/>
<path d="M-714.224 1464.8L-714.578 1464.53L944.662 -659.267L945.016 -658.991L-714.224 1464.8Z" fill="white"/>
<path d="M-774.042 1418.07L-774.396 1417.79L884.844 -706.004L885.198 -705.727L-774.042 1418.07Z" fill="white"/>
<path d="M-833.861 1371.33L-834.214 1371.05L825.025 -752.741L825.379 -752.464L-833.861 1371.33Z" fill="white"/>
<path d="M-893.679 1324.59L-894.033 1324.32L765.207 -799.477L765.561 -799.201L-893.679 1324.59Z" fill="white"/>
<path d="M-953.497 1277.86L-953.851 1277.58L705.388 -846.214L705.742 -845.937L-953.497 1277.86Z" fill="white"/>
<path d="M-1013.32 1231.12L-1013.67 1230.84L645.57 -892.951L645.924 -892.674L-1013.32 1231.12Z" fill="white"/>
<path d="M-1073.13 1184.38L-1073.49 1184.11L585.752 -939.687L586.106 -939.411L-1073.13 1184.38Z" fill="white"/>
<path d="M-1132.95 1137.65L-1133.31 1137.37L525.933 -986.424L526.287 -986.147L-1132.95 1137.65Z" fill="white"/>
<path d="M-1192.77 1090.91L-1193.12 1090.63L466.115 -1033.16L466.469 -1032.88L-1192.77 1090.91Z" fill="white"/>
<path d="M0 0.325073H1725V0.774292H0V0.325073Z" fill="white"/>
<path d="M0 123.636H1725V124.085H0V123.636Z" fill="white"/>
<path d="M0 246.946H1725V247.395H0V246.946Z" fill="white"/>
<path d="M0 370.257H1725V370.706H0V370.257Z" fill="white"/>
<path d="M0 493.567H1725V494.016H0V493.567Z" fill="white"/>
<path d="M0 616.878H1725V617.327H0V616.878Z" fill="white"/>
<path d="M0 740.188H1725V740.637H0V740.188Z" fill="white"/>
<path d="M0 863.499H1725V863.948H0V863.499Z" fill="white"/>
<path d="M0 986.809H1725V987.259H0V986.809Z" fill="white"/>
<path d="M0 1110.12H1725V1110.57H0V1110.12Z" fill="white"/>
<path d="M0 1233.43H1725V1233.88H0V1233.43Z" fill="white"/>
<path d="M0 1356.74H1725V1357.19H0V1356.74Z" fill="white"/>
<path d="M0 1480.05H1725V1480.5H0V1480.05Z" fill="white"/>
<path d="M0 1603.36H1725V1603.81H0V1603.36Z" fill="white"/>
<path d="M0 1726.67H1725V1727.12H0V1726.67Z" fill="white"/>
<path d="M0 1849.98H1725V1850.43H0V1849.98Z" fill="white"/>
<path d="M0 1973.29H1725V1973.74H0V1973.29Z" fill="white"/>
<path d="M0 2096.6H1725V2097.05H0V2096.6Z" fill="white"/>
<path d="M0 2219.91H1725V2220.36H0V2219.91Z" fill="white"/>
<path d="M0 2343.23H1725V2343.67H0V2343.23Z" fill="white"/>
<path d="M0 2466.54H1725V2466.98H0V2466.54Z" fill="white"/>
<path d="M0 2589.85H1725V2590.3H0V2589.85Z" fill="white"/>
<path d="M0 2713.16H1725V2713.61H0V2713.16Z" fill="white"/>
<path d="M0 2836.47H1725V2836.92H0V2836.47Z" fill="white"/>
</g>
<defs>
<linearGradient id="paint0_linear_146_718" x1="862.5" y1="0.39502" x2="862.5" y2="1973.29" gradientUnits="userSpaceOnUse">
<stop offset="0.570847" stop-color="#D9D9D9"/>
<stop offset="0.882398" stop-color="#D9D9D9" stop-opacity="0"/>
</linearGradient>
</defs>
</svg>
