<svg width="40" height="40" viewBox="0 0 40 40" fill="none" xmlns="http://www.w3.org/2000/svg">
<path d="M20 12.09L32.82 22.06C32.93 21.39 33 20.7 33 20C33 12.82 27.18 7 20 7C12.82 7 7 12.82 7 20C7 20.7 7.07 21.39 7.18 22.06L20 12.09Z" fill="white"/>
<path d="M19.9999 19.51L9.59998 27.78C11.97 30.95 15.7399 33 19.9999 33C24.2599 33 28.0299 30.94 30.3999 27.78L19.9999 19.51Z" fill="white"/>
<path d="M7.70008 24.18L20 14.55L32.3 24.17C32.08 24.83 31.81 25.47 31.49 26.07V26.08L20 17.09L8.51008 26.08C8.19008 25.48 7.92008 24.84 7.70008 24.18Z" fill="white"/>
</svg>
