<svg width="25" height="37" viewBox="0 0 25 37" fill="none" xmlns="http://www.w3.org/2000/svg">
<path opacity="0.75" d="M21.1426 14.8076L12.5118 30.5441L3.85717 14.8072L3.74319 14.6H3.50667H1.5H0.823129L1.1496 15.1929L12.1618 35.1929L12.5126 35.83L12.8628 35.1926L23.8506 15.1926L24.1761 14.6H23.5H21.4933H21.2565L21.1426 14.8076Z" fill="white" stroke="white" stroke-width="0.8"/>
<path opacity="0.5" d="M17.148 8.84597L12.5063 16.6038L7.8518 8.84566L7.76441 8.7H7.59455H6.5H5.96984L6.24283 9.15447L12.2495 19.1545L12.507 19.5831L12.764 19.1542L18.7573 9.15422L19.0296 8.7H18.5H17.4054H17.2353L17.148 8.84597Z" fill="white" stroke="white" stroke-width="0.6"/>
<path opacity="0.25" d="M15.5205 0.833912L12.5041 5.37113L9.47932 0.833599L9.39026 0.7H9.2297H8.5H7.9391L8.25047 1.16654L12.2549 7.16654L12.5047 7.54083L12.7541 7.16628L16.7497 1.16628L17.0602 0.7H16.5H15.7703H15.6095L15.5205 0.833912Z" fill="white" stroke="white" stroke-width="0.6"/>
</svg>
