<svg width="62" height="62" viewBox="0 0 62 62" fill="none" xmlns="http://www.w3.org/2000/svg">
<path fill-rule="evenodd" clip-rule="evenodd" d="M62 25.1874V36.8124H53.5175C52.3596 41.3113 49.889 45.2831 46.5384 48.2953L50.375 54.9406L40.3075 60.7531L36.214 53.663C34.5379 54.0471 32.7926 54.2499 31 54.2499C28.4824 54.2499 26.0582 53.8498 23.7876 53.1096L19.3747 60.7529L9.30719 54.9404L13.9827 46.8422C11.3836 44.0516 9.46268 40.6208 8.48248 36.8124H0L5.08145e-07 25.1874H8.48248C9.46271 21.379 11.3837 17.9482 13.9829 15.1575L9.30746 7.05947L19.375 1.24697L23.7878 8.89023C26.0583 8.15008 28.4824 7.74994 31 7.74994C32.7925 7.74994 34.5377 7.9528 36.2138 8.33681L40.3072 1.24683L50.3747 7.05933L46.5382 13.7044C49.8889 16.7166 52.3596 20.6885 53.5175 25.1874L62 25.1874ZM31 15.4999L42.5504 22.1686L31.0003 28.7687L19.4498 22.1684L31 15.4999ZM32.9376 32.1247L44.4234 25.5614V38.7499L32.9376 45.3813V32.1247ZM29.0626 32.1244V45.3814L17.5766 38.7499V25.5611L29.0626 32.1244Z" fill="white"/>
</svg>
