<svg width="1728" height="1117" viewBox="0 0 1728 1117" fill="none" xmlns="http://www.w3.org/2000/svg">
<g id="Geometry" opacity="0.3">
<rect id="line" x="864.345" y="-550.845" width="0.3" height="2220" fill="white"/>
<rect id="line_2" x="-95.6553" y="559.155" width="0.3" height="1920" transform="rotate(-90 -95.6553 559.155)" fill="white"/>
<rect id="line_3" x="-196.492" y="-501.578" width="0.3" height="3000" transform="rotate(-45 -196.492 -501.578)" fill="white"/>
<rect id="line_4" x="-364.533" y="-301.261" width="0.3" height="3000" transform="rotate(-55 -364.533 -301.261)" fill="white"/>
<rect id="line_5" x="-495.237" y="-74.8057" width="0.3" height="3000" transform="rotate(-65 -495.237 -74.8057)" fill="white"/>
<rect id="line_6" x="-584.631" y="170.905" width="0.3" height="3000" transform="rotate(-75 -584.631 170.905)" fill="white"/>
<rect id="line_7" x="-630" y="428.406" width="0.3" height="3000" transform="rotate(-85 -630 428.406)" fill="white"/>
<rect id="line_8" x="3.78101" y="-669.673" width="0.3" height="3000" transform="rotate(-35 3.78101 -669.673)" fill="white"/>
<rect id="line_9" x="230.201" y="-800.437" width="0.3" height="3000" transform="rotate(-25 230.201 -800.437)" fill="white"/>
<rect id="line_10" x="475.888" y="-889.896" width="0.3" height="3000" transform="rotate(-15 475.888 -889.896)" fill="white"/>
<rect id="line_11" x="1498.06" y="-800.605" width="0.3" height="3000" transform="rotate(25 1498.06 -800.605)" fill="white"/>
<rect id="line_12" x="1724.51" y="-669.902" width="0.3" height="3000" transform="rotate(35 1724.51 -669.902)" fill="white"/>
<rect id="line_13" x="2092.92" y="-301.588" width="0.3" height="3000" transform="rotate(55 2092.92 -301.588)" fill="white"/>
<rect id="line_14" x="2223.69" y="-75.168" width="0.3" height="3000" transform="rotate(65 2223.69 -75.168)" fill="white"/>
<rect id="line_15" x="2313.15" y="170.519" width="0.3" height="3000" transform="rotate(75 2313.15 170.519)" fill="white"/>
<rect id="line_16" x="2351.24" y="361.35" width="0.3" height="3000" transform="rotate(82.4382 2351.24 361.35)" fill="white"/>
<rect id="line_17" x="1252.34" y="-890" width="0.3" height="3000" transform="rotate(15 1252.34 -890)" fill="white"/>
<rect id="line_18" width="0.3" height="3000" transform="matrix(-0.707107 -0.707107 -0.707107 0.707107 1925.18 -501.578)" fill="white"/>
<rect id="Rectangle 94" x="270.557" y="558.155" width="839.7" height="839.7" transform="rotate(-45 270.557 558.155)" stroke="white" stroke-width="0.3"/>
<rect id="Rectangle 95" x="444.495" y="978.005" width="839.7" height="839.7" transform="rotate(-90 444.495 978.005)" stroke="white" stroke-width="0.3"/>
<circle id="Ellipse 66" cx="864.345" cy="558.155" r="449.85" stroke="white" stroke-width="0.3"/>
<circle id="Ellipse 67" cx="1283.84" cy="137.655" r="166.35" stroke="white" stroke-width="0.3"/>
<circle id="Ellipse 68" cx="1283.84" cy="977.655" r="166.35" stroke="white" stroke-width="0.3"/>
<circle id="Ellipse 69" cx="443.845" cy="977.655" r="166.35" stroke="white" stroke-width="0.3"/>
<circle id="Ellipse 70" cx="443.845" cy="137.655" r="166.35" stroke="white" stroke-width="0.3"/>
<circle id="Ellipse 71" cx="864.345" cy="1152.16" r="71.85" stroke="white" stroke-width="0.3"/>
<circle id="Ellipse 72" cx="270.345" cy="558.155" r="71.85" stroke="white" stroke-width="0.3"/>
<circle id="Ellipse 73" cx="1457.34" cy="558.155" r="71.85" stroke="white" stroke-width="0.3"/>
<circle id="Ellipse 74" cx="864.345" cy="-35.8447" r="71.85" stroke="white" stroke-width="0.3"/>
</g>
</svg>
