<svg width="86" height="86" viewBox="0 0 86 86" fill="none" xmlns="http://www.w3.org/2000/svg">
<g style="mix-blend-mode:screen">
<path fill-rule="evenodd" clip-rule="evenodd" d="M39.4167 9.31667H37.2666L21.5 23.65V25.8L24.0083 29.025L22.2166 40.85L17.2 45.8667V53.0333L36.55 76.6833H39.4167V72.3833L40.85 70.95V20.7833L39.4167 19.35V9.31667ZM46.5833 76.6833H49.45L68.8 53.0333V45.8667L63.7833 40.85L61.9916 29.025L64.5 25.8V23.65L48.7333 9.31667H46.5833V19.35L45.15 20.7833V70.95L46.5833 72.3833V76.6833Z" fill="url(#paint0_linear_103_295)"/>
<mask id="path-2-inside-1_103_295" fill="white">
<path d="M17.9166 46.1635V52.7775L36.8896 75.9667H38.7L39.4166 76.6833H36.55L17.2 53.0333V45.8667L22.2166 40.85L24.0083 29.025L21.5 25.8V23.65L37.2666 9.31667H39.4166L38.7 10.0333H37.5437L22.2166 23.967V25.5541L24.763 28.828L22.8899 41.1902L17.9166 46.1635Z"/>
<path d="M49.45 76.6833L68.8 53.0333V45.8667L63.7833 40.85L61.9916 29.025L64.5 25.8V23.65L48.7333 9.31667H46.5833L47.3 10.0333H48.4562L63.7833 23.967V25.5541L61.2369 28.828L63.11 41.1902L68.0833 46.1635V52.7775L49.1103 75.9667H47.3L46.5833 76.6833H49.45Z"/>
<path d="M40.1333 21.0802L40.85 20.7833V70.95L40.1333 70.6531V21.0802Z"/>
<path d="M45.8666 21.0802L45.15 20.7833V70.95L45.8666 70.6531V21.0802Z"/>
</mask>
<path d="M17.9166 46.1635V52.7775L36.8896 75.9667H38.7L39.4166 76.6833H36.55L17.2 53.0333V45.8667L22.2166 40.85L24.0083 29.025L21.5 25.8V23.65L37.2666 9.31667H39.4166L38.7 10.0333H37.5437L22.2166 23.967V25.5541L24.763 28.828L22.8899 41.1902L17.9166 46.1635Z" fill="white"/>
<path d="M49.45 76.6833L68.8 53.0333V45.8667L63.7833 40.85L61.9916 29.025L64.5 25.8V23.65L48.7333 9.31667H46.5833L47.3 10.0333H48.4562L63.7833 23.967V25.5541L61.2369 28.828L63.11 41.1902L68.0833 46.1635V52.7775L49.1103 75.9667H47.3L46.5833 76.6833H49.45Z" fill="white"/>
<path d="M40.1333 21.0802L40.85 20.7833V70.95L40.1333 70.6531V21.0802Z" fill="white"/>
<path d="M45.8666 21.0802L45.15 20.7833V70.95L45.8666 70.6531V21.0802Z" fill="white"/>
<path d="M17.9166 52.7775H17.2V53.0333L17.3619 53.2313L17.9166 52.7775ZM17.9166 46.1635L17.4099 45.6568L17.2 45.8667V46.1635H17.9166ZM36.8896 75.9667L36.3349 76.4205L36.55 76.6833H36.8896V75.9667ZM38.7 75.9667L39.2067 75.4599L38.9968 75.25H38.7V75.9667ZM37.5437 10.0333V9.31667H37.2666L37.0616 9.50304L37.5437 10.0333ZM38.7 10.0333V10.75H38.9968L39.2067 10.5401L38.7 10.0333ZM22.2166 23.967L21.7345 23.4367L21.5 23.65V23.967H22.2166ZM22.2166 25.5541H21.5V25.8L21.6509 25.9941L22.2166 25.5541ZM21.5 23.65L21.0179 23.1197L20.7833 23.333V23.65H21.5ZM21.5 25.8H20.7833V26.0459L20.9342 26.24L21.5 25.8ZM37.2666 9.31667V8.6H36.9895L36.7845 8.78638L37.2666 9.31667ZM17.2 53.0333H16.4833V53.2892L16.6453 53.4872L17.2 53.0333ZM36.55 76.6833L35.9953 77.1372L36.2103 77.4H36.55V76.6833ZM17.2 45.8667L16.6932 45.3599L16.4833 45.5698V45.8667H17.2ZM22.2166 40.85L22.7234 41.3568L22.8899 41.1902L22.9252 40.9574L22.2166 40.85ZM24.0083 29.025L24.7169 29.1324L24.763 28.828L24.574 28.585L24.0083 29.025ZM68.8 53.0333L69.3546 53.4872L69.5166 53.2892V53.0333H68.8ZM49.45 76.6833V77.4H49.7896L50.0046 77.1372L49.45 76.6833ZM68.8 45.8667H69.5166V45.5698L69.3067 45.3599L68.8 45.8667ZM63.7833 40.85L63.0747 40.9574L63.11 41.1902L63.2765 41.3568L63.7833 40.85ZM61.9916 29.025L61.4259 28.585L61.2369 28.828L61.283 29.1324L61.9916 29.025ZM64.5 25.8L65.0657 26.24L65.2166 26.0459V25.8H64.5ZM64.5 23.65H65.2166V23.333L64.982 23.1197L64.5 23.65ZM48.7333 9.31667L49.2154 8.78638L49.0104 8.6H48.7333V9.31667ZM49.1103 75.9667V76.6833H49.45L49.665 76.4205L49.1103 75.9667ZM47.3 75.9667V75.25H47.0031L46.7932 75.4599L47.3 75.9667ZM68.0833 52.7775L68.638 53.2313L68.8 53.0333V52.7775H68.0833ZM68.0833 46.1635H68.8V45.8667L68.59 45.6568L68.0833 46.1635ZM63.7833 23.967H64.5V23.65L64.2654 23.4367L63.7833 23.967ZM63.7833 25.5541L64.349 25.9941L64.5 25.8V25.5541H63.7833ZM48.4562 10.0333L48.9383 9.50304L48.7333 9.31667H48.4562V10.0333ZM47.3 10.0333L46.7932 10.5401L47.0031 10.75H47.3V10.0333ZM22.8899 41.1902L23.3967 41.697L23.5632 41.5304L23.5985 41.2976L22.8899 41.1902ZM24.763 28.828L25.4716 28.9354L25.5177 28.631L25.3287 28.388L24.763 28.828ZM39.4166 9.31667L39.9234 9.82343L41.1468 8.6H39.4166V9.31667ZM39.4166 76.6833V77.4H41.1468L39.9234 76.1766L39.4166 76.6833ZM46.5833 76.6833L46.0765 76.1766L44.8531 77.4H46.5833V76.6833ZM46.5833 9.31667V8.6H44.8531L46.0765 9.82343L46.5833 9.31667ZM63.11 41.1902L62.4014 41.2976L62.4367 41.5304L62.6032 41.697L63.11 41.1902ZM61.2369 28.828L60.6712 28.388L60.4822 28.631L60.5283 28.9354L61.2369 28.828ZM40.85 20.7833H41.5666V19.7108L40.5757 20.1212L40.85 20.7833ZM40.1333 21.0802L39.859 20.4181L39.4166 20.6013V21.0802H40.1333ZM45.15 20.7833L45.4242 20.1212L44.4333 19.7108V20.7833H45.15ZM45.8666 21.0802H46.5833V20.6013L46.1409 20.4181L45.8666 21.0802ZM40.1333 70.6531H39.4166V71.132L39.859 71.3153L40.1333 70.6531ZM40.85 70.95L40.5757 71.6121L41.5666 72.0226V70.95H40.85ZM45.15 70.95H44.4333V72.0226L45.4242 71.6121L45.15 70.95ZM45.8666 70.6531L46.1409 71.3153L46.5833 71.132V70.6531H45.8666ZM18.6333 52.7775V46.1635H17.2V52.7775H18.6333ZM37.4442 75.5128L18.4713 52.3237L17.3619 53.2313L36.3349 76.4205L37.4442 75.5128ZM38.7 75.25H36.8896V76.6833H38.7V75.25ZM37.5437 10.75H38.7V9.31667H37.5437V10.75ZM22.6987 24.4973L38.0258 10.5636L37.0616 9.50304L21.7345 23.4367L22.6987 24.4973ZM22.9333 25.5541V23.967H21.5V25.5541H22.9333ZM20.7833 23.65V25.8H22.2166V23.65H20.7833ZM36.7845 8.78638L21.0179 23.1197L21.982 24.1803L37.7487 9.84696L36.7845 8.78638ZM16.6453 53.4872L35.9953 77.1372L37.1046 76.2295L17.7546 52.5795L16.6453 53.4872ZM16.4833 45.8667V53.0333H17.9166V45.8667H16.4833ZM21.7099 40.3432L16.6932 45.3599L17.7067 46.3734L22.7234 41.3568L21.7099 40.3432ZM23.2997 28.9176L21.508 40.7426L22.9252 40.9574L24.7169 29.1324L23.2997 28.9176ZM20.9342 26.24L23.4426 29.465L24.574 28.585L22.0657 25.36L20.9342 26.24ZM68.2453 52.5795L48.8953 76.2295L50.0046 77.1372L69.3546 53.4872L68.2453 52.5795ZM68.0833 45.8667V53.0333H69.5166V45.8667H68.0833ZM63.2765 41.3568L68.2932 46.3734L69.3067 45.3599L64.29 40.3432L63.2765 41.3568ZM61.283 29.1324L63.0747 40.9574L64.4919 40.7426L62.7002 28.9176L61.283 29.1324ZM63.9343 25.36L61.4259 28.585L62.5573 29.465L65.0657 26.24L63.9343 25.36ZM63.7833 23.65V25.8H65.2166V23.65H63.7833ZM48.2512 9.84696L64.0179 24.1803L64.982 23.1197L49.2154 8.78638L48.2512 9.84696ZM49.1103 75.25H47.3V76.6833H49.1103V75.25ZM67.5286 52.3237L48.5557 75.5128L49.665 76.4205L68.638 53.2313L67.5286 52.3237ZM67.3666 46.1635V52.7775H68.8V46.1635H67.3666ZM63.0666 23.967V25.5541H64.5V23.967H63.0666ZM47.9741 10.5636L63.3012 24.4973L64.2654 23.4367L48.9383 9.50304L47.9741 10.5636ZM47.3 10.75H48.4562V9.31667H47.3V10.75ZM23.5985 41.2976L25.4716 28.9354L24.0544 28.7206L22.1813 41.0829L23.5985 41.2976ZM18.4234 46.6703L23.3967 41.697L22.3832 40.6835L17.4099 45.6568L18.4234 46.6703ZM25.3287 28.388L22.7823 25.1141L21.6509 25.9941L24.1973 29.268L25.3287 28.388ZM39.4166 8.6H37.2666V10.0333H39.4166V8.6ZM36.55 77.4H39.4166V75.9667H36.55V77.4ZM49.45 75.9667H46.5833V77.4H49.45V75.9667ZM46.5833 10.0333H48.7333V8.6H46.5833V10.0333ZM62.6032 41.697L67.5765 46.6703L68.59 45.6568L63.6167 40.6835L62.6032 41.697ZM60.5283 28.9354L62.4014 41.2976L63.8186 41.0829L61.9455 28.7206L60.5283 28.9354ZM63.2176 25.1141L60.6712 28.388L61.8026 29.268L64.349 25.9941L63.2176 25.1141ZM38.9099 8.80991L38.1932 9.52657L39.2067 10.5401L39.9234 9.82343L38.9099 8.80991ZM40.5757 20.1212L39.859 20.4181L40.4075 21.7423L41.1242 21.4454L40.5757 20.1212ZM44.8757 21.4454L45.5924 21.7423L46.1409 20.4181L45.4242 20.1212L44.8757 21.4454ZM46.0765 9.82343L46.7932 10.5401L47.8067 9.52657L47.09 8.80991L46.0765 9.82343ZM38.1932 76.4734L38.9099 77.1901L39.9234 76.1766L39.2067 75.4599L38.1932 76.4734ZM39.859 71.3153L40.5757 71.6121L41.1242 70.2879L40.4075 69.991L39.859 71.3153ZM47.09 77.1901L47.8067 76.4734L46.7932 75.4599L46.0765 76.1766L47.09 77.1901ZM45.4242 71.6121L46.1409 71.3153L45.5924 69.991L44.8757 70.2879L45.4242 71.6121ZM45.8666 70.95V20.7833H44.4333V70.95H45.8666ZM46.5833 70.6531V21.0802H45.15V70.6531H46.5833ZM39.4166 21.0802V70.6531H40.85V21.0802H39.4166ZM41.5666 70.95V20.7833H40.1333V70.95H41.5666Z" fill="white" mask="url(#path-2-inside-1_103_295)"/>
<path fill-rule="evenodd" clip-rule="evenodd" d="M11.4667 9.675L24.3667 14.6917V18.275L55.0041 45.3909L56.3029 44.0514C56.6376 43.7063 57.2104 43.7821 57.4439 44.2023L58.6012 46.2855C58.7059 46.4739 58.7202 46.6995 58.6401 46.8997L58.2337 47.9156C58.1231 48.1921 58.1951 48.5082 58.4144 48.7096L75.288 64.2058C75.4848 64.3866 75.5648 64.6619 75.4953 64.92L73.2539 73.2449C73.1839 73.5049 72.8628 73.5977 72.6649 73.415L68.557 69.6231C68.4835 69.5552 68.4417 69.4598 68.4417 69.3598V67.1752C68.4417 67.0694 68.3949 66.969 68.314 66.9009L53.2027 54.1938C52.908 53.946 52.4702 53.9753 52.2112 54.2602L49.5161 57.2248C49.2734 57.4917 48.8703 57.5367 48.5748 57.3299L46.1973 55.6656C45.8359 55.4126 45.7867 54.8963 46.0938 54.5796L49.5658 50.9991L46.9417 48.375L43 51.2417L42.2833 45.8667C40.6864 44.3822 38.6693 42.6614 36.4335 40.754C26.7962 32.5322 13.0955 20.8439 11.4667 9.675Z" fill="white"/>
<path d="M53.9292 44.075L57.1542 44.7917L48.0167 53.5708L53.9292 44.075Z" fill="black"/>
<path d="M53.3062 55.6882L49.6355 56.4967L58.6082 47.3295L59.1822 47.5672L53.3062 55.6882Z" fill="black"/>
<path d="M72.5625 60.9167L74.3541 62.35L72.7656 68.271C72.7107 68.4754 72.4091 68.4325 72.4134 68.2209L72.5625 60.9167Z" fill="black"/>
<path d="M24.3667 13.975H25.4417V13.2254L24.7383 12.9663L24.3667 13.975ZM10.75 8.95834L11.1216 7.94962L9.42539 7.32469L9.68625 9.11347L10.75 8.95834ZM26.7836 20.4141L27.496 19.6091L26.7836 20.4141ZM54.6752 45.0998L53.9627 45.9048L54.7571 46.6078L55.4706 45.8229L54.6752 45.0998ZM55.8007 43.8617L56.5962 44.5848V44.5848L55.8007 43.8617ZM56.7848 43.7891L56.1041 44.6211L56.7848 43.7891ZM59.7308 46.1995L60.4115 45.3675L60.4115 45.3675L59.7308 46.1995ZM59.8992 47.1097L58.9659 46.5763V46.5763L59.8992 47.1097ZM59.0571 48.5835L59.9904 49.1168V49.1168L59.0571 48.5835ZM59.2066 49.4777L59.9157 48.6697H59.9156L59.2066 49.4777ZM75.9964 64.2117L75.2873 65.0196L75.9964 64.2117ZM72.9274 73.7034L72.1939 74.4893L72.1939 74.4893L72.9274 73.7034ZM68.6693 69.7292L67.9358 70.515L67.9358 70.5151L68.6693 69.7292ZM68.1838 66.7935L67.4956 67.6193L67.4956 67.6193L68.1838 66.7935ZM53.8685 54.864L54.5567 54.0382L54.5567 54.0382L53.8685 54.864ZM52.9303 54.8819L53.6494 55.681L52.9303 54.8819ZM50.1971 57.3418L50.9162 58.1408L50.9162 58.1408L50.1971 57.3418ZM49.3566 57.4281L49.8982 56.4996H49.8982L49.3566 57.4281ZM46.273 55.6294L45.7314 56.558L45.7314 56.558L46.273 55.6294ZM46.1038 54.5283L46.8993 55.2514L46.8993 55.2514L46.1038 54.5283ZM49.4329 50.8663L50.2284 51.5894L50.9179 50.8309L50.1931 50.1061L49.4329 50.8663ZM46.4464 48.7352L45.8141 47.8658L45.8141 47.8658L46.4464 48.7352ZM43 51.2417L41.9344 51.3838L42.1729 53.1724L43.6323 52.1111L43 51.2417ZM42.4533 47.1418L41.3878 47.2839L42.4533 47.1418ZM41.3368 45.0021L40.6178 45.8012L40.6178 45.8012L41.3368 45.0021ZM36.4628 40.7694L35.7638 41.5862H35.7638L36.4628 40.7694ZM24.7383 12.9663L11.1216 7.94962L10.3784 9.96706L23.995 14.9837L24.7383 12.9663ZM25.4417 15.0475V13.975H23.2917V15.0475H25.4417ZM27.496 19.6091C26.1896 18.4529 25.4417 16.792 25.4417 15.0475H23.2917C23.2917 17.4078 24.3036 19.6548 26.0711 21.2191L27.496 19.6091ZM55.3877 44.2948L27.496 19.6091L26.0711 21.2191L53.9627 45.9048L55.3877 44.2948ZM55.4706 45.8229L56.5962 44.5848L55.0053 43.1386L53.8798 44.3767L55.4706 45.8229ZM56.5962 44.5848C56.4679 44.7259 56.2517 44.7418 56.1041 44.6211L57.4656 42.9571C56.7278 42.3535 55.6465 42.4332 55.0053 43.1386L56.5962 44.5848ZM56.1041 44.6211L59.0501 47.0315L60.4115 45.3675L57.4656 42.9571L56.1041 44.6211ZM59.0501 47.0315C58.9147 46.9207 58.8791 46.7283 58.9659 46.5763L60.8326 47.643C61.2667 46.8834 61.0886 45.9215 60.4115 45.3675L59.0501 47.0315ZM58.9659 46.5763L58.1237 48.0501L59.9904 49.1168L60.8326 47.643L58.9659 46.5763ZM58.1237 48.0501C57.7012 48.7895 57.8575 49.7241 58.4975 50.2857L59.9156 48.6697C60.0437 48.7821 60.0749 48.969 59.9904 49.1168L58.1237 48.0501ZM58.4975 50.2857L75.2873 65.0196L76.7055 63.4037L59.9157 48.6697L58.4975 50.2857ZM75.2873 65.0196C75.1865 64.9311 75.1435 64.7936 75.1761 64.6634L77.2619 65.1849C77.4246 64.5338 77.2099 63.8463 76.7055 63.4037L75.2873 65.0196ZM75.1761 64.6634L73.0688 73.0925L75.1546 73.614L77.2619 65.1849L75.1761 64.6634ZM73.0688 73.0925C73.135 72.8277 73.4613 72.7312 73.6609 72.9175L72.1939 74.4893C73.192 75.4208 74.8235 74.9385 75.1546 73.614L73.0688 73.0925ZM73.6609 72.9175L69.4028 68.9433L67.9358 70.5151L72.1939 74.4893L73.6609 72.9175ZM69.4028 68.9433C69.4754 69.0111 69.5167 69.1059 69.5167 69.2052H67.3667C67.3667 69.7019 67.5728 70.1762 67.9358 70.515L69.4028 68.9433ZM69.5167 69.2052V67.344H67.3667V69.2052H69.5167ZM69.5167 67.344C69.5167 66.8123 69.2805 66.308 68.872 65.9676L67.4956 67.6193C67.4139 67.5512 67.3667 67.4504 67.3667 67.344H69.5167ZM68.872 65.9676L54.5567 54.0382L53.1803 55.6899L67.4956 67.6193L68.872 65.9676ZM54.5567 54.0382C53.8725 53.468 52.8732 53.487 52.2112 54.0829L53.6494 55.681C53.517 55.8001 53.3172 55.8039 53.1803 55.6899L54.5567 54.0382ZM52.2112 54.0829L49.478 56.5428L50.9162 58.1408L53.6494 55.681L52.2112 54.0829ZM49.478 56.5427C49.5938 56.4385 49.7636 56.4211 49.8982 56.4996L48.8149 58.3567C49.4878 58.7492 50.3372 58.662 50.9162 58.1408L49.478 56.5427ZM49.8982 56.4996L46.8147 54.7008L45.7314 56.558L48.8149 58.3567L49.8982 56.4996ZM46.8147 54.7009C47.0116 54.8157 47.0526 55.0827 46.8993 55.2514L45.3084 53.8052C44.5418 54.6484 44.747 55.9837 45.7314 56.558L46.8147 54.7009ZM46.8993 55.2514L50.2284 51.5894L48.6375 50.1432L45.3084 53.8052L46.8993 55.2514ZM46.6146 49.5682L48.6728 51.6264L50.1931 50.1061L48.1348 48.0479L46.6146 49.5682ZM47.0787 49.6046C46.9361 49.7083 46.7392 49.6929 46.6146 49.5682L48.1348 48.0479C47.5114 47.4245 46.5271 47.3473 45.8141 47.8658L47.0787 49.6046ZM43.6323 52.1111L47.0787 49.6046L45.8141 47.8658L42.3677 50.3723L43.6323 52.1111ZM41.3878 47.2839L41.9344 51.3838L44.0656 51.0996L43.5189 46.9997L41.3878 47.2839ZM40.6178 45.8012C41.0388 46.18 41.3103 46.7029 41.3878 47.2839L43.5189 46.9997C43.3766 45.9321 42.8713 44.9366 42.0558 44.2029L40.6178 45.8012ZM35.7638 41.5862C37.5785 43.1391 39.2278 44.5506 40.6178 45.8012L42.0558 44.2029C40.6419 42.9308 38.9703 41.5004 37.1617 39.9527L35.7638 41.5862ZM9.68625 9.11347C10.5525 15.0533 14.7205 21.1091 19.7414 26.6377C24.7911 32.198 30.8633 37.3924 35.7638 41.5862L37.1617 39.9527C32.2438 35.7441 26.2766 30.6357 21.333 25.1923C16.3608 19.7173 12.5816 14.0687 11.8137 8.80321L9.68625 9.11347Z" fill="black"/>
<path fill-rule="evenodd" clip-rule="evenodd" d="M24.4782 22.667C21.5873 19.9437 21.9094 16.4935 22.575 16.4833C22.575 18.9917 24.6416 20.9799 25.4281 21.5936L53.8667 46.7634L52.9167 47.8367L24.4782 22.667Z" fill="black"/>
<circle cx="21.8583" cy="13.975" r="1.075" fill="black"/>
<circle cx="19.7083" cy="13.2583" r="1.075" fill="black"/>
<circle cx="17.5583" cy="12.5417" r="1.075" fill="black"/>
<path fill-rule="evenodd" clip-rule="evenodd" d="M74.5333 9.675L61.6333 14.6917V18.275L30.9959 45.3909L29.6971 44.0514C29.3624 43.7063 28.7896 43.7821 28.5561 44.2023L27.3988 46.2855C27.2941 46.4739 27.2798 46.6995 27.3599 46.8997L27.7663 47.9156C27.8769 48.1921 27.8049 48.5082 27.5856 48.7096L10.712 64.2058C10.5152 64.3866 10.4353 64.6619 10.5047 64.92L12.7461 73.2449C12.8161 73.5049 13.1372 73.5977 13.3351 73.415L17.4431 69.6231C17.5165 69.5552 17.5583 69.4598 17.5583 69.3598V67.1752C17.5583 67.0694 17.6051 66.969 17.686 66.9009L32.7973 54.1938C33.092 53.946 33.5298 53.9753 33.7888 54.2602L36.4839 57.2248C36.7266 57.4917 37.1297 57.5367 37.4252 57.3299L39.8027 55.6656C40.1641 55.4126 40.2133 54.8963 39.9062 54.5796L36.4342 50.9991L39.0583 48.375L43 51.2417L43.7167 45.8667C45.3136 44.3822 47.3307 42.6614 49.5665 40.754C59.2038 32.5322 72.9045 20.8439 74.5333 9.675Z" fill="white"/>
<path d="M32.0708 44.075L28.8458 44.7917L37.9833 53.5708L32.0708 44.075Z" fill="black"/>
<path d="M32.6938 55.6882L36.3645 56.4967L27.3918 47.3295L26.8178 47.5672L32.6938 55.6882Z" fill="black"/>
<path d="M13.4375 60.9167L11.6459 62.35L13.2344 68.271C13.2893 68.4754 13.5909 68.4325 13.5866 68.2209L13.4375 60.9167Z" fill="black"/>
<path d="M61.6333 13.975H60.5583V13.2254L61.2617 12.9663L61.6333 13.975ZM75.25 8.95834L74.8784 7.94962L76.5746 7.32469L76.3137 9.11347L75.25 8.95834ZM59.2164 20.4141L58.504 19.6091L59.2164 20.4141ZM31.3248 45.0998L32.0373 45.9048L31.2429 46.6078L30.5294 45.8229L31.3248 45.0998ZM30.1993 43.8617L29.4038 44.5848V44.5848L30.1993 43.8617ZM29.2152 43.7891L29.8959 44.6211L29.8959 44.6211L29.2152 43.7891ZM26.2692 46.1995L25.5885 45.3675H25.5885L26.2692 46.1995ZM26.1008 47.1097L27.0341 46.5763V46.5763L26.1008 47.1097ZM26.9429 48.5835L27.8763 48.0501L27.8763 48.0502L26.9429 48.5835ZM26.7934 49.4777L26.0844 48.6697H26.0844L26.7934 49.4777ZM10.0036 64.2117L10.7127 65.0196L10.0036 64.2117ZM9.78104 64.9241L10.8239 64.6634L9.78104 64.9241ZM11.8883 73.3533L12.9312 73.0925V73.0926L11.8883 73.3533ZM13.0726 73.7034L12.3391 72.9175L12.3391 72.9175L13.0726 73.7034ZM17.3307 69.7292L18.0642 70.515L18.0642 70.5151L17.3307 69.7292ZM17.8162 66.7935L17.128 65.9676L17.128 65.9676L17.8162 66.7935ZM32.1315 54.864L31.4433 54.0382L31.4433 54.0382L32.1315 54.864ZM33.0697 54.8819L33.7888 54.0829L33.7888 54.0829L33.0697 54.8819ZM35.8029 57.3418L35.0838 58.1408L35.0838 58.1408L35.8029 57.3418ZM36.6434 57.4281L36.1018 56.4996H36.1018L36.6434 57.4281ZM39.727 55.6294L40.2686 56.558L40.2686 56.558L39.727 55.6294ZM39.8962 54.5283L39.1007 55.2514L39.1007 55.2514L39.8962 54.5283ZM36.5671 50.8663L35.7716 51.5894L35.0821 50.8309L35.8069 50.1061L36.5671 50.8663ZM39.5536 48.7352L40.1859 47.8658L40.1859 47.8658L39.5536 48.7352ZM43 51.2417L44.0656 51.3838L43.8271 53.1724L42.3677 52.1111L43 51.2417ZM43.5467 47.1418L44.6122 47.2839L43.5467 47.1418ZM44.6632 45.0021L45.3822 45.8012L45.3822 45.8012L44.6632 45.0021ZM49.5372 40.7694L50.2362 41.5862H50.2362L49.5372 40.7694ZM61.2617 12.9663L74.8784 7.94962L75.6216 9.96706L62.005 14.9837L61.2617 12.9663ZM60.5583 15.0475V13.975H62.7083V15.0475H60.5583ZM58.504 19.6091C59.8104 18.4529 60.5583 16.792 60.5583 15.0475H62.7083C62.7083 17.4078 61.6964 19.6548 59.9289 21.2191L58.504 19.6091ZM30.6123 44.2948L58.504 19.6091L59.9289 21.2191L32.0373 45.9048L30.6123 44.2948ZM30.5294 45.8229L29.4038 44.5848L30.9947 43.1386L32.1202 44.3767L30.5294 45.8229ZM29.4038 44.5848C29.5321 44.7259 29.7483 44.7419 29.8959 44.6211L28.5344 42.9571C29.2722 42.3535 30.3535 42.4332 30.9947 43.1386L29.4038 44.5848ZM29.8959 44.6211L26.9499 47.0315L25.5885 45.3675L28.5344 42.9571L29.8959 44.6211ZM26.9499 47.0315C27.0853 46.9207 27.1209 46.7283 27.0341 46.5763L25.1674 47.643C24.7334 46.8834 24.9114 45.9214 25.5885 45.3675L26.9499 47.0315ZM27.0341 46.5763L27.8763 48.0501L26.0096 49.1168L25.1674 47.643L27.0341 46.5763ZM27.8763 48.0502C28.2988 48.7895 28.1425 49.7241 27.5025 50.2857L26.0844 48.6697C25.9563 48.7821 25.9251 48.969 26.0096 49.1168L27.8763 48.0502ZM27.5025 50.2857L10.7127 65.0196L9.29453 63.4037L26.0844 48.6697L27.5025 50.2857ZM10.7127 65.0196C10.8136 64.9311 10.8565 64.7936 10.8239 64.6634L8.73814 65.1849C8.57536 64.5338 8.79008 63.8463 9.29453 63.4037L10.7127 65.0196ZM10.8239 64.6634L12.9312 73.0925L10.8454 73.614L8.73814 65.1849L10.8239 64.6634ZM12.9312 73.0926C12.865 72.8277 12.5387 72.7312 12.3391 72.9175L13.8061 74.4893C12.808 75.4208 11.1765 74.9385 10.8454 73.614L12.9312 73.0926ZM12.3391 72.9175L16.5972 68.9433L18.0642 70.5151L13.8061 74.4893L12.3391 72.9175ZM16.5972 68.9433C16.5246 69.0111 16.4833 69.1059 16.4833 69.2052H18.6333C18.6333 69.7019 18.4272 70.1762 18.0642 70.515L16.5972 68.9433ZM16.4833 69.2052V67.344H18.6333V69.2052H16.4833ZM16.4833 67.344C16.4833 66.8123 16.7195 66.308 17.128 65.9676L18.5044 67.6193C18.5861 67.5512 18.6333 67.4504 18.6333 67.344H16.4833ZM17.128 65.9676L31.4433 54.0382L32.8197 55.6899L18.5044 67.6193L17.128 65.9676ZM31.4433 54.0382C32.1276 53.468 33.1268 53.487 33.7888 54.0829L32.3506 55.681C32.483 55.8001 32.6828 55.8039 32.8197 55.6899L31.4433 54.0382ZM33.7888 54.0829L36.522 56.5428L35.0838 58.1408L32.3506 55.681L33.7888 54.0829ZM36.522 56.5427C36.4062 56.4385 36.2364 56.4211 36.1018 56.4996L37.1851 58.3567C36.5122 58.7492 35.6628 58.662 35.0838 58.1408L36.522 56.5427ZM36.1018 56.4996L39.1853 54.7008L40.2686 56.558L37.1851 58.3567L36.1018 56.4996ZM39.1853 54.7009C38.9884 54.8157 38.9474 55.0827 39.1007 55.2514L40.6916 53.8052C41.4582 54.6484 41.2531 55.9837 40.2686 56.558L39.1853 54.7009ZM39.1007 55.2514L35.7716 51.5894L37.3625 50.1432L40.6916 53.8052L39.1007 55.2514ZM39.3854 49.5682L37.3272 51.6264L35.8069 50.1061L37.8652 48.0479L39.3854 49.5682ZM38.9213 49.6046C39.0639 49.7083 39.2608 49.6929 39.3854 49.5682L37.8652 48.0479C38.4886 47.4245 39.4729 47.3473 40.1859 47.8658L38.9213 49.6046ZM42.3677 52.1111L38.9213 49.6046L40.1859 47.8658L43.6323 50.3723L42.3677 52.1111ZM44.6122 47.2839L44.0656 51.3838L41.9344 51.0996L42.4811 46.9997L44.6122 47.2839ZM45.3822 45.8012C44.9612 46.18 44.6897 46.7029 44.6122 47.2839L42.4811 46.9997C42.6234 45.9321 43.1287 44.9366 43.9442 44.2029L45.3822 45.8012ZM50.2362 41.5862C48.4215 43.1391 46.7722 44.5506 45.3822 45.8012L43.9442 44.2029C45.3581 42.9308 47.0297 41.5004 48.8383 39.9527L50.2362 41.5862ZM76.3137 9.11347C75.4475 15.0533 71.2795 21.1091 66.2586 26.6377C61.2089 32.198 55.1367 37.3924 50.2362 41.5862L48.8383 39.9527C53.7562 35.7441 59.7234 30.6357 64.667 25.1923C69.6392 19.7173 73.4184 14.0687 74.1863 8.80321L76.3137 9.11347Z" fill="black"/>
<path fill-rule="evenodd" clip-rule="evenodd" d="M61.5218 22.667C64.4127 19.9437 64.0906 16.4935 63.425 16.4833C63.425 18.9917 61.3584 20.9799 60.5719 21.5936L32.1333 46.7634L33.0833 47.8367L61.5218 22.667Z" fill="black"/>
<circle cx="1.075" cy="1.075" r="1.075" transform="matrix(-1 0 0 1 65.2167 12.9)" fill="black"/>
<circle cx="1.075" cy="1.075" r="1.075" transform="matrix(-1 0 0 1 67.3667 12.1833)" fill="black"/>
<circle cx="1.075" cy="1.075" r="1.075" transform="matrix(-1 0 0 1 69.5167 11.4667)" fill="black"/>
</g>
<defs>
<linearGradient id="paint0_linear_103_295" x1="43" y1="9.31667" x2="43" y2="76.6833" gradientUnits="userSpaceOnUse">
<stop stop-color="white" stop-opacity="0.4"/>
<stop offset="1" stop-color="white" stop-opacity="0.6"/>
</linearGradient>
</defs>
</svg>
