 <svg width="70" height="70" viewBox="0 0 70 70" fill="none" xmlns="http://www.w3.org/2000/svg">
      <g id="Emblem">
        <g id="Vector">
          <path d="M48.8425 35.0001L31.395 57.4351C32.5675 57.6276 33.775 57.7501 35 57.7501C47.565 57.7501 57.75 47.5651 57.75 35.0001C57.75 22.435 47.565 12.25 35 12.25C33.775 12.25 32.5675 12.3725 31.395 12.565L48.8425 35.0001Z" fill="white" />
          <path d="M35.8575 34.9999L21.3849 16.8C15.8374 20.9475 12.2499 27.5449 12.2499 34.9999C12.2499 42.4549 15.8549 49.0524 21.3849 53.1999L35.8575 34.9999Z" fill="white" />
          <path d="M27.685 13.4751L44.5375 35.0001L27.7024 56.5251C26.5474 56.14 25.4274 55.6676 24.3775 55.1076H24.3599L40.0925 35.0001L24.3599 14.8926C25.41 14.3326 26.5299 13.8601 27.685 13.4751Z" fill="white" />
        </g>
      </g>
    </svg>