<svg width="76" height="90" viewBox="0 0 76 90" fill="none" xmlns="http://www.w3.org/2000/svg">
<g id="12. Lieutenant Colonel" filter="url(#filter0_ddii_103_1302)">
<path id="Vector" fill-rule="evenodd" clip-rule="evenodd" d="M67 36V31L38 2L9 31V36L38 65L67 36ZM55 36V31L38 14L21 31V36L38 53L55 36Z" fill="white"/>
<path id="Vector_2" d="M38 24L40.2451 30.9098H47.5106L41.6327 35.1803L43.8779 42.0902L38 37.8197L32.1221 42.0902L34.3673 35.1803L28.4894 30.9098H35.7549L38 24Z" fill="white"/>
<path id="Vector_3" d="M39 68L67 40V54L48 73V76L39 84V68Z" fill="white"/>
<path id="Vector_4" d="M37 68V84L28 76V73L9 54V40L37 68Z" fill="white"/>
</g>
<defs>
<filter id="filter0_ddii_103_1302" x="-4" y="0" width="84" height="90" filterUnits="userSpaceOnUse" color-interpolation-filters="sRGB">
<feFlood flood-opacity="0" result="BackgroundImageFix"/>
<feColorMatrix in="SourceAlpha" type="matrix" values="0 0 0 0 0 0 0 0 0 0 0 0 0 0 0 0 0 0 127 0" result="hardAlpha"/>
<feOffset dy="2"/>
<feGaussianBlur stdDeviation="2"/>
<feComposite in2="hardAlpha" operator="out"/>
<feColorMatrix type="matrix" values="0 0 0 0 0 0 0 0 0 0 0 0 0 0 0 0 0 0 0.25 0"/>
<feBlend mode="normal" in2="BackgroundImageFix" result="effect1_dropShadow_103_1302"/>
<feColorMatrix in="SourceAlpha" type="matrix" values="0 0 0 0 0 0 0 0 0 0 0 0 0 0 0 0 0 0 127 0" result="hardAlpha"/>
<feOffset dy="1"/>
<feGaussianBlur stdDeviation="0.5"/>
<feComposite in2="hardAlpha" operator="out"/>
<feColorMatrix type="matrix" values="0 0 0 0 0 0 0 0 0 0 0 0 0 0 0 0 0 0 0.5 0"/>
<feBlend mode="normal" in2="effect1_dropShadow_103_1302" result="effect2_dropShadow_103_1302"/>
<feBlend mode="normal" in="SourceGraphic" in2="effect2_dropShadow_103_1302" result="shape"/>
<feColorMatrix in="SourceAlpha" type="matrix" values="0 0 0 0 0 0 0 0 0 0 0 0 0 0 0 0 0 0 127 0" result="hardAlpha"/>
<feOffset dy="1"/>
<feGaussianBlur stdDeviation="0.25"/>
<feComposite in2="hardAlpha" operator="arithmetic" k2="-1" k3="1"/>
<feColorMatrix type="matrix" values="0 0 0 0 1 0 0 0 0 1 0 0 0 0 1 0 0 0 0.8 0"/>
<feBlend mode="overlay" in2="shape" result="effect3_innerShadow_103_1302"/>
<feColorMatrix in="SourceAlpha" type="matrix" values="0 0 0 0 0 0 0 0 0 0 0 0 0 0 0 0 0 0 127 0" result="hardAlpha"/>
<feOffset dy="-1"/>
<feGaussianBlur stdDeviation="0.25"/>
<feComposite in2="hardAlpha" operator="arithmetic" k2="-1" k3="1"/>
<feColorMatrix type="matrix" values="0 0 0 0 0 0 0 0 0 0 0 0 0 0 0 0 0 0 0.5 0"/>
<feBlend mode="overlay" in2="effect3_innerShadow_103_1302" result="effect4_innerShadow_103_1302"/>
</filter>
</defs>
</svg>
